<svg width="1920" height="903" viewBox="0 0 1920 903" fill="none" xmlns="http://www.w3.org/2000/svg">
<rect width="1920" height="903" fill="white"/>
<rect x="59.6744" y="52.6744" width="478.651" height="62.6511" rx="3.32556" fill="white"/>
<path d="M98.0887 88.934V90.5H88.9447V77.9H97.8367V79.466H90.7447V83.336H97.0627V84.866H90.7447V88.934H98.0887ZM112.685 80.87C113.885 80.87 114.833 81.218 115.529 81.914C116.237 82.61 116.591 83.642 116.591 85.01V90.5H114.863V85.208C114.863 84.284 114.647 83.588 114.215 83.12C113.795 82.652 113.189 82.418 112.397 82.418C111.521 82.418 110.825 82.694 110.309 83.246C109.793 83.786 109.535 84.566 109.535 85.586V90.5H107.807V85.208C107.807 84.284 107.591 83.588 107.159 83.12C106.739 82.652 106.133 82.418 105.341 82.418C104.465 82.418 103.769 82.694 103.253 83.246C102.737 83.786 102.479 84.566 102.479 85.586V90.5H100.751V80.96H102.407V82.382C102.755 81.89 103.211 81.518 103.775 81.266C104.339 81.002 104.981 80.87 105.701 80.87C106.445 80.87 107.105 81.02 107.681 81.32C108.257 81.62 108.701 82.058 109.013 82.634C109.373 82.082 109.871 81.65 110.507 81.338C111.155 81.026 111.881 80.87 112.685 80.87ZM123.245 80.87C124.565 80.87 125.573 81.194 126.269 81.842C126.977 82.49 127.331 83.456 127.331 84.74V90.5H125.693V89.24C125.405 89.684 124.991 90.026 124.451 90.266C123.923 90.494 123.293 90.608 122.561 90.608C121.493 90.608 120.635 90.35 119.987 89.834C119.351 89.318 119.033 88.64 119.033 87.8C119.033 86.96 119.339 86.288 119.951 85.784C120.563 85.268 121.535 85.01 122.867 85.01H125.603V84.668C125.603 83.924 125.387 83.354 124.955 82.958C124.523 82.562 123.887 82.364 123.047 82.364C122.483 82.364 121.931 82.46 121.391 82.652C120.851 82.832 120.395 83.078 120.023 83.39L119.303 82.094C119.795 81.698 120.383 81.398 121.067 81.194C121.751 80.978 122.477 80.87 123.245 80.87ZM122.849 89.276C123.509 89.276 124.079 89.132 124.559 88.844C125.039 88.544 125.387 88.124 125.603 87.584V86.252H122.939C121.475 86.252 120.743 86.744 120.743 87.728C120.743 88.208 120.929 88.586 121.301 88.862C121.673 89.138 122.189 89.276 122.849 89.276ZM130.529 80.96H132.257V90.5H130.529V80.96ZM131.393 79.124C131.057 79.124 130.775 79.016 130.547 78.8C130.331 78.584 130.223 78.32 130.223 78.008C130.223 77.696 130.331 77.432 130.547 77.216C130.775 76.988 131.057 76.874 131.393 76.874C131.729 76.874 132.005 76.982 132.221 77.198C132.449 77.402 132.563 77.66 132.563 77.972C132.563 78.296 132.449 78.572 132.221 78.8C132.005 79.016 131.729 79.124 131.393 79.124ZM135.556 77.144H137.284V90.5H135.556V77.144Z" fill="#999999"/>
<rect x="59.6744" y="52.6744" width="478.651" height="62.6511" rx="3.32556" stroke="#C0C0C0" stroke-width="1.34888"/>
<rect x="592" y="52" width="480" height="64" rx="5.39553" fill="black"/>
<path d="M760.582 77.9344V90.5344H758.818V79.5004H751.51V90.5344H749.728V77.9344H760.582ZM768.309 90.6424C767.361 90.6424 766.509 90.4324 765.753 90.0124C764.997 89.5924 764.403 89.0164 763.971 88.2844C763.551 87.5404 763.341 86.7004 763.341 85.7644C763.341 84.8284 763.551 83.9944 763.971 83.2624C764.403 82.5184 764.997 81.9424 765.753 81.5344C766.509 81.1144 767.361 80.9044 768.309 80.9044C769.257 80.9044 770.103 81.1144 770.847 81.5344C771.603 81.9424 772.191 82.5184 772.611 83.2624C773.043 83.9944 773.259 84.8284 773.259 85.7644C773.259 86.7004 773.043 87.5404 772.611 88.2844C772.191 89.0164 771.603 89.5924 770.847 90.0124C770.103 90.4324 769.257 90.6424 768.309 90.6424ZM768.309 89.1304C768.921 89.1304 769.467 88.9924 769.947 88.7164C770.439 88.4284 770.823 88.0324 771.099 87.5284C771.375 87.0124 771.513 86.4244 771.513 85.7644C771.513 85.1044 771.375 84.5224 771.099 84.0184C770.823 83.5024 770.439 83.1064 769.947 82.8304C769.467 82.5544 768.921 82.4164 768.309 82.4164C767.697 82.4164 767.145 82.5544 766.653 82.8304C766.173 83.1064 765.789 83.5024 765.501 84.0184C765.225 84.5224 765.087 85.1044 765.087 85.7644C765.087 86.4244 765.225 87.0124 765.501 87.5284C765.789 88.0324 766.173 88.4284 766.653 88.7164C767.145 88.9924 767.697 89.1304 768.309 89.1304ZM783.874 80.9944V90.5344H782.146V82.5064H778.042L777.934 84.6304C777.874 85.9144 777.76 86.9884 777.592 87.8524C777.424 88.7044 777.148 89.3884 776.764 89.9044C776.38 90.4204 775.846 90.6784 775.162 90.6784C774.85 90.6784 774.496 90.6244 774.1 90.5164L774.208 89.0584C774.364 89.0944 774.508 89.1124 774.64 89.1124C775.12 89.1124 775.48 88.9024 775.72 88.4824C775.96 88.0624 776.116 87.5644 776.188 86.9884C776.26 86.4124 776.326 85.5904 776.386 84.5224L776.548 80.9944H783.874ZM795.729 80.9944L791.103 91.4884C790.695 92.4604 790.215 93.1444 789.663 93.5404C789.123 93.9364 788.469 94.1344 787.701 94.1344C787.233 94.1344 786.777 94.0564 786.333 93.9004C785.901 93.7564 785.541 93.5404 785.253 93.2524L785.991 91.9564C786.483 92.4244 787.053 92.6584 787.701 92.6584C788.121 92.6584 788.469 92.5444 788.745 92.3164C789.033 92.1004 789.291 91.7224 789.519 91.1824L789.825 90.5164L785.613 80.9944H787.413L790.743 88.6264L794.037 80.9944H795.729ZM805.112 80.9944V90.5344H803.384V86.6824C802.352 87.1624 801.326 87.4024 800.306 87.4024C799.118 87.4024 798.2 87.1264 797.552 86.5744C796.904 86.0224 796.58 85.1944 796.58 84.0904V80.9944H798.308V83.9824C798.308 84.6424 798.512 85.1404 798.92 85.4764C799.34 85.8124 799.922 85.9804 800.666 85.9804C801.506 85.9804 802.412 85.7704 803.384 85.3504V80.9944H805.112ZM808.467 80.9944H810.195V87.9424L816.045 80.9944H817.611V90.5344H815.883V83.5864L810.051 90.5344H808.467V80.9944ZM828.075 82.5064H824.583V90.5344H822.855V82.5064H819.363V80.9944H828.075V82.5064ZM834.252 84.2344C835.464 84.2464 836.388 84.5224 837.024 85.0624C837.66 85.6024 837.978 86.3644 837.978 87.3484C837.978 88.3804 837.63 89.1784 836.934 89.7424C836.25 90.2944 835.266 90.5644 833.982 90.5524L829.842 90.5344V80.9944H831.57V84.2164L834.252 84.2344ZM833.838 89.2384C834.618 89.2504 835.206 89.0944 835.602 88.7704C836.01 88.4464 836.214 87.9664 836.214 87.3304C836.214 86.7064 836.016 86.2504 835.62 85.9624C835.236 85.6744 834.642 85.5244 833.838 85.5124L831.57 85.4764V89.2204L833.838 89.2384ZM854.732 89.0224V92.7484H853.112V90.5344H845.138V92.7484H843.5V89.0224H844.004C844.616 88.9864 845.036 88.5544 845.264 87.7264C845.492 86.8984 845.648 85.7284 845.732 84.2164L845.876 80.9944H853.274V89.0224H854.732ZM847.316 84.3424C847.268 85.5424 847.166 86.5384 847.01 87.3304C846.866 88.1104 846.596 88.6744 846.2 89.0224H851.546V82.5064H847.406L847.316 84.3424ZM860.385 80.9044C861.705 80.9044 862.713 81.2284 863.409 81.8764C864.117 82.5244 864.471 83.4904 864.471 84.7744V90.5344H862.833V89.2744C862.545 89.7184 862.131 90.0604 861.591 90.3004C861.063 90.5284 860.433 90.6424 859.701 90.6424C858.633 90.6424 857.775 90.3844 857.127 89.8684C856.491 89.3524 856.173 88.6744 856.173 87.8344C856.173 86.9944 856.479 86.3224 857.091 85.8184C857.703 85.3024 858.675 85.0444 860.007 85.0444H862.743V84.7024C862.743 83.9584 862.527 83.3884 862.095 82.9924C861.663 82.5964 861.027 82.3984 860.187 82.3984C859.623 82.3984 859.071 82.4944 858.531 82.6864C857.991 82.8664 857.535 83.1124 857.163 83.4244L856.443 82.1284C856.935 81.7324 857.523 81.4324 858.207 81.2284C858.891 81.0124 859.617 80.9044 860.385 80.9044ZM859.989 89.3104C860.649 89.3104 861.219 89.1664 861.699 88.8784C862.179 88.5784 862.527 88.1584 862.743 87.6184V86.2864H860.079C858.615 86.2864 857.883 86.7784 857.883 87.7624C857.883 88.2424 858.069 88.6204 858.441 88.8964C858.813 89.1724 859.329 89.3104 859.989 89.3104ZM867.582 80.9944H869.31V85.0444H874.746V80.9944H876.474V90.5344H874.746V86.5384H869.31V90.5344H867.582V80.9944ZM879.834 80.9944H881.562V85.0444H886.998V80.9944H888.726V90.5344H886.998V86.5384H881.562V90.5344H879.834V80.9944ZM896.388 84.2344C897.588 84.2464 898.506 84.5224 899.142 85.0624C899.778 85.6024 900.096 86.3644 900.096 87.3484C900.096 88.3804 899.748 89.1784 899.052 89.7424C898.368 90.2944 897.384 90.5644 896.1 90.5524L892.086 90.5344V80.9944H893.814V84.2164L896.388 84.2344ZM901.518 80.9944H903.246V90.5344H901.518V80.9944ZM895.974 89.2384C896.754 89.2504 897.342 89.0944 897.738 88.7704C898.146 88.4464 898.35 87.9664 898.35 87.3304C898.35 86.7064 898.152 86.2504 897.756 85.9624C897.36 85.6744 896.766 85.5244 895.974 85.5124L893.814 85.4764V89.2204L895.974 89.2384ZM915.228 85.8184C915.228 85.9504 915.216 86.1244 915.192 86.3404H907.452C907.56 87.1804 907.926 87.8584 908.55 88.3744C909.186 88.8784 909.972 89.1304 910.908 89.1304C912.048 89.1304 912.966 88.7464 913.662 87.9784L914.616 89.0944C914.184 89.5984 913.644 89.9824 912.996 90.2464C912.36 90.5104 911.646 90.6424 910.854 90.6424C909.846 90.6424 908.952 90.4384 908.172 90.0304C907.392 89.6104 906.786 89.0284 906.354 88.2844C905.934 87.5404 905.724 86.7004 905.724 85.7644C905.724 84.8404 905.928 84.0064 906.336 83.2624C906.756 82.5184 907.326 81.9424 908.046 81.5344C908.778 81.1144 909.6 80.9044 910.512 80.9044C911.424 80.9044 912.234 81.1144 912.942 81.5344C913.662 81.9424 914.22 82.5184 914.616 83.2624C915.024 84.0064 915.228 84.8584 915.228 85.8184ZM910.512 82.3624C909.684 82.3624 908.988 82.6144 908.424 83.1184C907.872 83.6224 907.548 84.2824 907.452 85.0984H913.572C913.476 84.2944 913.146 83.6404 912.582 83.1364C912.03 82.6204 911.34 82.3624 910.512 82.3624Z" fill="white"/>
</svg>
