<svg width="736" height="943" viewBox="0 0 736 943" fill="none" xmlns="http://www.w3.org/2000/svg">
<g filter="url(#filter0_d_5940_269)">
<rect x="48" y="32" width="640" height="847" rx="12" fill="white"/>
<path d="M661.071 54.0711C661.401 54.4007 661.369 54.9757 661.016 55.4036L660.928 55.4996L655.286 61.1421L660.928 66.7847C661.362 67.2186 661.426 67.8582 661.071 68.2132C660.741 68.5429 660.166 68.5113 659.739 68.1577L659.643 68.0704L654 62.4278L648.357 68.0704C647.924 68.5043 647.284 68.5682 646.929 68.2132C646.599 67.8835 646.631 67.3085 646.984 66.8807L647.072 66.7847L652.714 61.1421L647.072 55.4996C646.638 55.0657 646.574 54.4261 646.929 54.0711C647.259 53.7414 647.834 53.773 648.261 54.1266L648.357 54.2139L654 59.8565L659.643 54.2139C660.076 53.78 660.716 53.716 661.071 54.0711Z" fill="black"/>
<path d="M144.263 342.8L133.067 363.572C132.179 365.228 131.135 366.464 129.935 367.28C128.735 368.096 127.427 368.504 126.011 368.504C124.907 368.504 123.779 368.252 122.627 367.748L123.563 364.868C124.451 365.18 125.243 365.336 125.939 365.336C127.523 365.336 128.831 364.496 129.863 362.816L130.439 361.916L120.287 342.8H124.139L132.311 358.784L140.699 342.8H144.263ZM164.36 348.92V368H160.904V351.944H150.14V368H146.684V348.92H164.36ZM179.363 368.216C177.419 368.216 175.679 367.796 174.143 366.956C172.631 366.116 171.443 364.964 170.579 363.5C169.715 362.012 169.283 360.332 169.283 358.46C169.283 356.588 169.715 354.92 170.579 353.456C171.443 351.968 172.631 350.816 174.143 350C175.679 349.16 177.419 348.74 179.363 348.74C181.091 348.74 182.627 349.088 183.971 349.784C185.339 350.48 186.395 351.488 187.139 352.808L184.511 354.5C183.911 353.588 183.167 352.904 182.279 352.448C181.391 351.992 180.407 351.764 179.327 351.764C178.079 351.764 176.951 352.04 175.943 352.592C174.959 353.144 174.179 353.936 173.603 354.968C173.051 355.976 172.775 357.14 172.775 358.46C172.775 359.804 173.051 360.992 173.603 362.024C174.179 363.032 174.959 363.812 175.943 364.364C176.951 364.916 178.079 365.192 179.327 365.192C180.407 365.192 181.391 364.964 182.279 364.508C183.167 364.052 183.911 363.368 184.511 362.456L187.139 364.112C186.395 365.432 185.339 366.452 183.971 367.172C182.627 367.868 181.091 368.216 179.363 368.216ZM193.073 368.216C192.401 368.216 191.825 367.988 191.345 367.532C190.865 367.052 190.625 366.452 190.625 365.732C190.625 365.036 190.865 364.46 191.345 364.004C191.825 363.524 192.401 363.284 193.073 363.284C193.745 363.284 194.309 363.512 194.765 363.968C195.221 364.424 195.449 365.012 195.449 365.732C195.449 366.452 195.209 367.052 194.729 367.532C194.273 367.988 193.721 368.216 193.073 368.216ZM201.229 368.216C200.557 368.216 199.981 367.988 199.501 367.532C199.021 367.052 198.781 366.452 198.781 365.732C198.781 365.036 199.021 364.46 199.501 364.004C199.981 363.524 200.557 363.284 201.229 363.284C201.901 363.284 202.465 363.512 202.921 363.968C203.377 364.424 203.605 365.012 203.605 365.732C203.605 366.452 203.365 367.052 202.885 367.532C202.429 367.988 201.877 368.216 201.229 368.216ZM240.581 342.8V368H237.053V345.932H222.437V368H218.873V342.8H240.581ZM257.98 348.74C259.828 348.74 261.484 349.148 262.948 349.964C264.412 350.78 265.552 351.92 266.368 353.384C267.208 354.848 267.628 356.54 267.628 358.46C267.628 360.38 267.208 362.084 266.368 363.572C265.552 365.036 264.412 366.176 262.948 366.992C261.484 367.808 259.828 368.216 257.98 368.216C256.612 368.216 255.352 367.952 254.2 367.424C253.072 366.896 252.112 366.128 251.32 365.12V374.984H247.864V348.92H251.176V351.944C251.944 350.888 252.916 350.096 254.092 349.568C255.268 349.016 256.564 348.74 257.98 348.74ZM257.692 365.192C258.916 365.192 260.008 364.916 260.968 364.364C261.952 363.788 262.72 362.996 263.272 361.988C263.848 360.956 264.136 359.78 264.136 358.46C264.136 357.14 263.848 355.976 263.272 354.968C262.72 353.936 261.952 353.144 260.968 352.592C260.008 352.04 258.916 351.764 257.692 351.764C256.492 351.764 255.4 352.052 254.416 352.628C253.456 353.18 252.688 353.96 252.112 354.968C251.56 355.976 251.284 357.14 251.284 358.46C251.284 359.78 251.56 360.956 252.112 361.988C252.664 362.996 253.432 363.788 254.416 364.364C255.4 364.916 256.492 365.192 257.692 365.192ZM280.821 368.216C278.925 368.216 277.221 367.796 275.709 366.956C274.197 366.116 273.009 364.964 272.145 363.5C271.305 362.012 270.885 360.332 270.885 358.46C270.885 356.588 271.305 354.92 272.145 353.456C273.009 351.968 274.197 350.816 275.709 350C277.221 349.16 278.925 348.74 280.821 348.74C282.717 348.74 284.409 349.16 285.897 350C287.409 350.816 288.585 351.968 289.425 353.456C290.289 354.92 290.721 356.588 290.721 358.46C290.721 360.332 290.289 362.012 289.425 363.5C288.585 364.964 287.409 366.116 285.897 366.956C284.409 367.796 282.717 368.216 280.821 368.216ZM280.821 365.192C282.045 365.192 283.137 364.916 284.097 364.364C285.081 363.788 285.849 362.996 286.401 361.988C286.953 360.956 287.229 359.78 287.229 358.46C287.229 357.14 286.953 355.976 286.401 354.968C285.849 353.936 285.081 353.144 284.097 352.592C283.137 352.04 282.045 351.764 280.821 351.764C279.597 351.764 278.493 352.04 277.509 352.592C276.549 353.144 275.781 353.936 275.205 354.968C274.653 355.976 274.377 357.14 274.377 358.46C274.377 359.78 274.653 360.956 275.205 361.988C275.781 362.996 276.549 363.788 277.509 364.364C278.493 364.916 279.597 365.192 280.821 365.192ZM295.711 348.92H299.167V362.816L310.867 348.92H313.999V368H310.543V354.104L298.879 368H295.711V348.92ZM330.723 358.064C331.995 358.4 332.979 358.94 333.675 359.684C334.371 360.428 334.719 361.352 334.719 362.456C334.719 363.584 334.335 364.592 333.567 365.48C332.799 366.344 331.731 367.028 330.363 367.532C329.019 368.012 327.507 368.252 325.827 368.252C324.411 368.252 323.019 368.072 321.651 367.712C320.307 367.328 319.107 366.788 318.051 366.092L319.095 363.464C320.007 364.04 321.051 364.496 322.227 364.832C323.403 365.144 324.591 365.3 325.791 365.3C327.423 365.3 328.719 365.024 329.679 364.472C330.663 363.896 331.155 363.128 331.155 362.168C331.155 361.28 330.759 360.596 329.967 360.116C329.199 359.636 328.107 359.396 326.691 359.396H323.199V356.912H326.439C327.735 356.912 328.755 356.684 329.499 356.228C330.243 355.772 330.615 355.148 330.615 354.356C330.615 353.492 330.171 352.82 329.283 352.34C328.419 351.86 327.243 351.62 325.755 351.62C323.859 351.62 321.855 352.112 319.743 353.096L318.807 350.432C321.135 349.256 323.571 348.668 326.115 348.668C327.651 348.668 329.031 348.884 330.255 349.316C331.479 349.748 332.439 350.36 333.135 351.152C333.831 351.944 334.179 352.844 334.179 353.852C334.179 354.788 333.867 355.628 333.243 356.372C332.619 357.116 331.779 357.68 330.723 358.064ZM348.145 368.216C346.249 368.216 344.545 367.796 343.033 366.956C341.521 366.116 340.333 364.964 339.469 363.5C338.629 362.012 338.209 360.332 338.209 358.46C338.209 356.588 338.629 354.92 339.469 353.456C340.333 351.968 341.521 350.816 343.033 350C344.545 349.16 346.249 348.74 348.145 348.74C350.041 348.74 351.733 349.16 353.221 350C354.733 350.816 355.909 351.968 356.749 353.456C357.613 354.92 358.045 356.588 358.045 358.46C358.045 360.332 357.613 362.012 356.749 363.5C355.909 364.964 354.733 366.116 353.221 366.956C351.733 367.796 350.041 368.216 348.145 368.216ZM348.145 365.192C349.369 365.192 350.461 364.916 351.421 364.364C352.405 363.788 353.173 362.996 353.725 361.988C354.277 360.956 354.553 359.78 354.553 358.46C354.553 357.14 354.277 355.976 353.725 354.968C353.173 353.936 352.405 353.144 351.421 352.592C350.461 352.04 349.369 351.764 348.145 351.764C346.921 351.764 345.817 352.04 344.833 352.592C343.873 353.144 343.105 353.936 342.529 354.968C341.977 355.976 341.701 357.14 341.701 358.46C341.701 359.78 341.977 360.956 342.529 361.988C343.105 362.996 343.873 363.788 344.833 364.364C345.817 364.916 346.921 365.192 348.145 365.192ZM390.216 348.92V368H363.036V348.92H366.492V364.976H374.916V348.92H378.372V364.976H386.76V348.92H390.216ZM413.306 348.92V368H409.85V351.944H401.642L401.426 356.192C401.306 358.76 401.078 360.908 400.742 362.636C400.406 364.34 399.854 365.708 399.086 366.74C398.318 367.772 397.25 368.288 395.882 368.288C395.258 368.288 394.55 368.18 393.758 367.964L393.974 365.048C394.286 365.12 394.574 365.156 394.838 365.156C395.798 365.156 396.518 364.736 396.998 363.896C397.478 363.056 397.79 362.06 397.934 360.908C398.078 359.756 398.21 358.112 398.33 355.976L398.654 348.92H413.306ZM426.793 348.74C429.433 348.74 431.449 349.388 432.841 350.684C434.257 351.98 434.965 353.912 434.965 356.48V368H431.689V365.48C431.113 366.368 430.285 367.052 429.205 367.532C428.149 367.988 426.889 368.216 425.425 368.216C423.289 368.216 421.573 367.7 420.277 366.668C419.005 365.636 418.369 364.28 418.369 362.6C418.369 360.92 418.981 359.576 420.205 358.568C421.429 357.536 423.373 357.02 426.037 357.02H431.509V356.336C431.509 354.848 431.077 353.708 430.213 352.916C429.349 352.124 428.077 351.728 426.397 351.728C425.269 351.728 424.165 351.92 423.085 352.304C422.005 352.664 421.093 353.156 420.349 353.78L418.909 351.188C419.893 350.396 421.069 349.796 422.437 349.388C423.805 348.956 425.257 348.74 426.793 348.74ZM426.001 365.552C427.321 365.552 428.461 365.264 429.421 364.688C430.381 364.088 431.077 363.248 431.509 362.168V359.504H426.181C423.253 359.504 421.789 360.488 421.789 362.456C421.789 363.416 422.161 364.172 422.905 364.724C423.649 365.276 424.681 365.552 426.001 365.552ZM459.028 368.216C457.132 368.216 455.428 367.796 453.916 366.956C452.404 366.116 451.216 364.964 450.352 363.5C449.512 362.012 449.092 360.332 449.092 358.46C449.092 356.588 449.512 354.92 450.352 353.456C451.216 351.968 452.404 350.816 453.916 350C455.428 349.16 457.132 348.74 459.028 348.74C460.924 348.74 462.616 349.16 464.104 350C465.616 350.816 466.792 351.968 467.632 353.456C468.496 354.92 468.928 356.588 468.928 358.46C468.928 360.332 468.496 362.012 467.632 363.5C466.792 364.964 465.616 366.116 464.104 366.956C462.616 367.796 460.924 368.216 459.028 368.216ZM459.028 365.192C460.252 365.192 461.344 364.916 462.304 364.364C463.288 363.788 464.056 362.996 464.608 361.988C465.16 360.956 465.436 359.78 465.436 358.46C465.436 357.14 465.16 355.976 464.608 354.968C464.056 353.936 463.288 353.144 462.304 352.592C461.344 352.04 460.252 351.764 459.028 351.764C457.804 351.764 456.7 352.04 455.716 352.592C454.756 353.144 453.988 353.936 453.412 354.968C452.86 355.976 452.584 357.14 452.584 358.46C452.584 359.78 452.86 360.956 453.412 361.988C453.988 362.996 454.756 363.788 455.716 364.364C456.7 364.916 457.804 365.192 459.028 365.192ZM501.098 348.92V368H473.918V348.92H477.374V364.976H485.798V348.92H489.254V364.976H497.642V348.92H501.098ZM507.809 348.92H511.265V362.816L522.965 348.92H526.097V368H522.641V354.104L510.977 368H507.809V348.92ZM542.525 349.568C544.301 349.568 545.885 349.964 547.277 350.756C548.669 351.548 549.749 352.652 550.517 354.068C551.309 355.46 551.705 357.056 551.705 358.856C551.705 360.704 551.285 362.348 550.445 363.788C549.629 365.204 548.465 366.308 546.953 367.1C545.465 367.892 543.761 368.288 541.841 368.288C538.601 368.288 536.093 367.184 534.317 364.976C532.565 362.744 531.689 359.612 531.689 355.58C531.689 351.668 532.493 348.608 534.101 346.4C535.709 344.168 538.169 342.692 541.481 341.972L550.193 340.028L550.697 343.196L542.669 344.924C540.173 345.476 538.313 346.412 537.089 347.732C535.865 349.052 535.169 350.948 535.001 353.42C535.817 352.196 536.873 351.248 538.169 350.576C539.465 349.904 540.917 349.568 542.525 349.568ZM541.913 365.408C543.137 365.408 544.217 365.132 545.153 364.58C546.113 364.028 546.857 363.272 547.385 362.312C547.913 361.328 548.177 360.212 548.177 358.964C548.177 357.068 547.601 355.544 546.449 354.392C545.297 353.24 543.785 352.664 541.913 352.664C540.041 352.664 538.517 353.24 537.341 354.392C536.189 355.544 535.613 357.068 535.613 358.964C535.613 360.212 535.877 361.328 536.405 362.312C536.957 363.272 537.713 364.028 538.673 364.58C539.633 365.132 540.713 365.408 541.913 365.408ZM564.057 359.936H560.097V368H556.641V348.92H560.097V356.984H564.129L570.321 348.92H574.029L566.793 358.1L574.533 368H570.465L564.057 359.936ZM584.609 348.74C587.249 348.74 589.265 349.388 590.657 350.684C592.073 351.98 592.781 353.912 592.781 356.48V368H589.505V365.48C588.929 366.368 588.101 367.052 587.021 367.532C585.965 367.988 584.705 368.216 583.241 368.216C581.105 368.216 579.389 367.7 578.093 366.668C576.821 365.636 576.185 364.28 576.185 362.6C576.185 360.92 576.797 359.576 578.021 358.568C579.245 357.536 581.189 357.02 583.853 357.02H589.325V356.336C589.325 354.848 588.893 353.708 588.029 352.916C587.165 352.124 585.893 351.728 584.213 351.728C583.085 351.728 581.981 351.92 580.901 352.304C579.821 352.664 578.909 353.156 578.165 353.78L576.725 351.188C577.709 350.396 578.885 349.796 580.253 349.388C581.621 348.956 583.073 348.74 584.609 348.74ZM583.817 365.552C585.137 365.552 586.277 365.264 587.237 364.688C588.197 364.088 588.893 363.248 589.325 362.168V359.504H583.997C581.069 359.504 579.605 360.488 579.605 362.456C579.605 363.416 579.977 364.172 580.721 364.724C581.465 365.276 582.497 365.552 583.817 365.552ZM598.464 342.8H602.532L601.848 360.044H599.112L598.464 342.8ZM600.516 368.216C599.844 368.216 599.28 368 598.824 367.568C598.368 367.112 598.14 366.56 598.14 365.912C598.14 365.264 598.368 364.724 598.824 364.292C599.28 363.836 599.844 363.608 600.516 363.608C601.188 363.608 601.74 363.836 602.172 364.292C602.604 364.724 602.82 365.264 602.82 365.912C602.82 366.56 602.592 367.112 602.136 367.568C601.704 368 601.164 368.216 600.516 368.216Z" fill="black"/>
</g>
<defs>
<filter id="filter0_d_5940_269" x="0" y="0" width="736" height="943" filterUnits="userSpaceOnUse" color-interpolation-filters="sRGB">
<feFlood flood-opacity="0" result="BackgroundImageFix"/>
<feColorMatrix in="SourceAlpha" type="matrix" values="0 0 0 0 0 0 0 0 0 0 0 0 0 0 0 0 0 0 127 0" result="hardAlpha"/>
<feOffset dy="16"/>
<feGaussianBlur stdDeviation="24"/>
<feColorMatrix type="matrix" values="0 0 0 0 0.234431 0 0 0 0 0 0 0 0 0 0.239216 0 0 0 0.48 0"/>
<feBlend mode="normal" in2="BackgroundImageFix" result="effect1_dropShadow_5940_269"/>
<feBlend mode="normal" in="SourceGraphic" in2="effect1_dropShadow_5940_269" result="shape"/>
</filter>
</defs>
</svg>
