<svg width="30" height="30" viewBox="0 0 30 30" fill="none" xmlns="http://www.w3.org/2000/svg">
<path d="M22.0711 7.07107C22.4007 7.40073 22.3691 7.97574 22.0155 8.40362L21.9282 8.49957L16.2856 14.1421L21.9282 19.7847C22.3621 20.2186 22.4261 20.8582 22.0711 21.2132C21.7414 21.5429 21.1664 21.5113 20.7385 21.1577L20.6426 21.0704L15 15.4278L9.35743 21.0704C8.92351 21.5043 8.28395 21.5682 7.92893 21.2132C7.59927 20.8835 7.63087 20.3085 7.98448 19.8807L8.07178 19.7847L13.7144 14.1421L8.07178 8.49957C7.63787 8.06565 7.57391 7.42609 7.92893 7.07107C8.2586 6.7414 8.8336 6.773 9.26148 7.12662L9.35743 7.21392L15 12.8565L20.6426 7.21392C21.0765 6.78 21.716 6.71605 22.0711 7.07107Z" fill="black"/>
</svg>
